<svg width="219" height="181" viewBox="0 0 219 181" fill="none" xmlns="http://www.w3.org/2000/svg">
<g filter="url(#filter0_d_4_107)">
<path d="M184.643 83C184.643 124.007 151.4 157.25 110.393 157.25C69.3857 157.25 36.1429 124.007 36.1429 83C36.1429 41.9929 69.3857 8.75 110.393 8.75C151.4 8.75 184.643 41.9929 184.643 83Z" fill="#FCDC36"/>
<path d="M20.8442 87.75H205.179L193.763 132.75H9.42857L20.8442 87.75Z" fill="#41197F"/>
<path d="M23.0942 85.5H207.429L196.013 130.5H11.6786L23.0942 85.5Z" fill="#FCC436"/>
<path d="M29.6119 123.375L35.5961 95.2646H45.0869C47.3612 95.2646 49.051 95.7728 50.1563 96.7893C51.2617 97.793 51.8144 99.1334 51.8144 100.81C51.8144 101.814 51.6556 102.831 51.3379 103.86C51.0203 104.889 50.5693 105.842 49.9848 106.718C49.4004 107.595 48.7016 108.319 47.8884 108.891C47.088 109.463 46.205 109.799 45.2394 109.901C45.8238 109.952 46.3638 110.098 46.8593 110.339C47.3675 110.568 47.7741 110.93 48.079 111.426C48.3967 111.909 48.5555 112.55 48.5555 113.351C48.5555 113.694 48.4983 114.17 48.384 114.78C48.2696 115.39 48.1298 116.069 47.9647 116.819C47.7995 117.556 47.6343 118.299 47.4692 119.049C47.304 119.786 47.1642 120.466 47.0499 121.088C46.9356 121.711 46.8784 122.2 46.8784 122.556C46.8784 122.746 46.8847 122.918 46.8974 123.07C46.9228 123.21 46.9546 123.311 46.9927 123.375H43.7148C43.6512 123.21 43.6195 122.956 43.6195 122.613C43.6195 122.282 43.6703 121.831 43.7719 121.26C43.8863 120.675 44.0197 120.046 44.1722 119.373C44.3373 118.687 44.4961 118.007 44.6486 117.334C44.8011 116.648 44.9281 116.019 45.0298 115.447C45.1441 114.875 45.2013 114.431 45.2013 114.113C45.2013 113.147 44.8582 112.448 44.1722 112.017C43.4861 111.585 42.5395 111.369 41.3325 111.369H33.919L35.5961 110.244L32.7946 123.375H29.6119ZM35.7295 109.596L34.4526 108.51H41.9614C43.1557 108.51 44.2357 108.205 45.2013 107.595C46.1669 106.985 46.9356 106.178 47.5073 105.175C48.079 104.171 48.3649 103.072 48.3649 101.878C48.3649 100.709 48.0282 99.7941 47.3548 99.1334C46.6814 98.46 45.5888 98.1233 44.0769 98.1233H36.7777L38.5501 96.2938L35.7295 109.596Z" fill="#41197F"/>
<path d="M61.9237 98.1233L63.7723 96.2747L61.0851 108.967L60.5134 107.843H71.3002L70.7094 110.702H59.9226L60.9517 109.577L58.2455 122.365L57.1592 120.516H70.7284L70.1186 123.375H54.7579L60.7421 95.2646H76.1028L75.4929 98.1233H61.9237Z" fill="#41197F"/>
<path d="M98.4586 113.598C98.2172 114.729 97.7725 115.892 97.1245 117.086C96.4893 118.268 95.6507 119.367 94.6089 120.383C93.5798 121.387 92.3727 122.2 90.9879 122.822C89.603 123.445 88.0466 123.756 86.3187 123.756C84.324 123.756 82.685 123.318 81.4018 122.441C80.1312 121.565 79.191 120.364 78.5812 118.839C77.984 117.302 77.6855 115.555 77.6855 113.598C77.6855 111.222 78.0094 108.923 78.6574 106.699C79.3181 104.476 80.2646 102.481 81.497 100.715C82.7422 98.9364 84.2414 97.5262 85.9947 96.4843C87.7607 95.4425 89.7491 94.9216 91.9598 94.9216C94.0181 94.9216 95.6698 95.3409 96.9149 96.1794C98.1727 97.0052 99.0811 98.0598 99.6402 99.343C100.199 100.626 100.479 101.948 100.479 103.307C100.479 103.65 100.46 103.968 100.422 104.26C100.383 104.552 100.333 104.813 100.269 105.041H97.0102C97.0483 104.851 97.0864 104.597 97.1245 104.279C97.1753 103.949 97.2008 103.644 97.2008 103.364C97.2008 102.348 96.9975 101.427 96.5909 100.601C96.197 99.775 95.5872 99.1143 94.7613 98.6188C93.9355 98.1233 92.881 97.8756 91.5977 97.8756C89.8825 97.8756 88.3642 98.3329 87.0429 99.2477C85.7215 100.163 84.6098 101.382 83.7078 102.907C82.8057 104.431 82.126 106.128 81.6686 107.995C81.2112 109.85 80.9825 111.724 80.9825 113.617C80.9825 115.955 81.4462 117.74 82.3737 118.973C83.3012 120.205 84.7242 120.821 86.6427 120.821C87.7734 120.821 88.8153 120.618 89.7682 120.211C90.7338 119.792 91.585 119.233 92.3219 118.534C93.0715 117.836 93.6877 117.061 94.1705 116.209C94.6661 115.345 95.0091 114.475 95.1997 113.598H98.4586Z" fill="#41197F"/>
<path d="M103.228 123.375L109.193 95.2646H112.414L106.468 123.375H103.228Z" fill="#41197F"/>
<path d="M117.747 123.375H114.488L120.472 95.2646H128.172C130.09 95.2646 131.64 95.595 132.822 96.2556C134.003 96.9163 134.867 97.8057 135.414 98.9237C135.973 100.029 136.252 101.262 136.252 102.621C136.252 104.298 135.973 105.81 135.414 107.157C134.855 108.491 134.061 109.641 133.031 110.606C132.002 111.559 130.776 112.29 129.353 112.798C127.943 113.306 126.38 113.56 124.665 113.56H119.843L117.747 123.375ZM120.091 112.36L118.986 110.702H124.684C126.374 110.702 127.841 110.365 129.086 109.691C130.332 109.018 131.297 108.078 131.983 106.871C132.669 105.664 133.012 104.254 133.012 102.64C133.012 101.674 132.815 100.861 132.422 100.201C132.04 99.5272 131.431 99.0127 130.592 98.6569C129.766 98.3012 128.686 98.1233 127.352 98.1233H121.654L123.502 96.2747L120.091 112.36Z" fill="#41197F"/>
<path d="M146.055 98.1233L147.904 96.2747L145.217 108.967L144.645 107.843H155.432L154.841 110.702H144.054L145.083 109.577L142.377 122.365L141.291 120.516H154.86L154.25 123.375H138.89L144.874 95.2646H160.234L159.625 98.1233H146.055Z" fill="#41197F"/>
<path d="M170.314 123.756C168.7 123.756 167.296 123.527 166.102 123.07C164.908 122.6 163.987 121.914 163.339 121.012C162.691 120.097 162.367 118.966 162.367 117.62C162.367 116.997 162.411 116.425 162.5 115.904C162.602 115.383 162.735 114.78 162.9 114.094H166.14C165.975 114.755 165.854 115.314 165.778 115.771C165.715 116.228 165.683 116.679 165.683 117.124C165.683 118.471 166.102 119.424 166.941 119.983C167.792 120.542 169.024 120.821 170.638 120.821C172.01 120.821 173.236 120.637 174.316 120.269C175.396 119.887 176.247 119.309 176.87 118.534C177.492 117.747 177.804 116.737 177.804 115.504C177.804 114.297 177.308 113.306 176.317 112.531C175.339 111.756 174.005 111.095 172.315 110.549C171.032 110.117 169.876 109.583 168.847 108.948C167.83 108.3 167.023 107.519 166.426 106.604C165.842 105.689 165.549 104.628 165.549 103.421C165.549 102.062 165.81 100.855 166.331 99.8004C166.865 98.7459 167.601 97.8565 168.542 97.1323C169.482 96.4081 170.574 95.8618 171.82 95.4933C173.065 95.1122 174.411 94.9216 175.86 94.9216C177.473 94.9216 178.871 95.1503 180.053 95.6077C181.247 96.0524 182.168 96.713 182.816 97.5897C183.464 98.4664 183.788 99.5527 183.788 100.849C183.788 101.408 183.743 101.967 183.655 102.526C183.566 103.085 183.451 103.669 183.311 104.279H180.053C180.192 103.695 180.294 103.174 180.357 102.716C180.434 102.246 180.472 101.782 180.472 101.325C180.472 100.029 180.046 99.127 179.195 98.6188C178.344 98.1106 177.118 97.8565 175.517 97.8565C174.221 97.8565 173.065 98.028 172.048 98.3711C171.032 98.7141 170.231 99.2541 169.647 99.991C169.063 100.715 168.77 101.662 168.77 102.831C168.77 104.165 169.291 105.213 170.333 105.975C171.375 106.725 172.766 107.405 174.507 108.014C175.866 108.484 177.035 109.037 178.013 109.672C178.992 110.308 179.741 111.057 180.262 111.921C180.796 112.785 181.063 113.795 181.063 114.951C181.063 116.819 180.586 118.414 179.633 119.735C178.693 121.044 177.41 122.041 175.784 122.727C174.17 123.413 172.347 123.756 170.314 123.756Z" fill="#41197F"/>
<path d="M98.0808 143.905C97.5633 143.905 97.1021 143.824 96.6971 143.662C96.2921 143.496 95.9726 143.255 95.7386 142.94C95.5046 142.625 95.3876 142.243 95.3876 141.793C95.3876 141.275 95.5338 140.857 95.8263 140.537C96.1188 140.213 96.4991 139.968 96.9671 139.801C97.4351 139.63 97.9301 139.52 98.4521 139.471C99.2081 139.399 99.7233 139.336 99.9978 139.282C100.277 139.223 100.416 139.124 100.416 138.985C100.416 138.98 100.416 138.978 100.416 138.978C100.416 138.973 100.416 138.971 100.416 138.971C100.416 138.755 100.302 138.58 100.072 138.445C99.8471 138.31 99.5366 138.242 99.1406 138.242C98.7221 138.242 98.4048 138.319 98.1888 138.472C97.9773 138.62 97.8716 138.847 97.8716 139.153H95.4956C95.4956 138.564 95.6576 138.069 95.9816 137.668C96.3101 137.263 96.7511 136.957 97.3046 136.75C97.8581 136.543 98.4768 136.44 99.1608 136.44C99.8088 136.44 100.41 136.537 100.963 136.73C101.521 136.924 101.971 137.218 102.313 137.614C102.66 138.01 102.833 138.514 102.833 139.126C102.833 139.221 102.833 139.315 102.833 139.41C102.833 139.504 102.833 139.599 102.833 139.693V142.069C102.833 142.258 102.837 142.443 102.846 142.623C102.855 142.798 102.88 142.96 102.921 143.109C102.97 143.271 103.031 143.408 103.103 143.521C103.179 143.633 103.24 143.71 103.285 143.75H100.929C100.893 143.714 100.839 143.644 100.767 143.541C100.7 143.437 100.641 143.318 100.592 143.183C100.533 143.003 100.491 142.83 100.464 142.663C100.437 142.492 100.423 142.29 100.423 142.056L100.936 142.407C100.81 142.717 100.603 142.985 100.315 143.21C100.032 143.435 99.6963 143.608 99.3093 143.73C98.9223 143.847 98.5128 143.905 98.0808 143.905ZM98.7693 142.157C99.0483 142.157 99.3161 142.101 99.5726 141.988C99.8291 141.876 100.041 141.696 100.207 141.448C100.374 141.201 100.457 140.87 100.457 140.456V139.963L101.064 140.503C100.767 140.607 100.43 140.695 100.052 140.767C99.6738 140.834 99.3048 140.886 98.9448 140.922C98.5623 140.962 98.2766 141.028 98.0876 141.118C97.8986 141.208 97.8041 141.356 97.8041 141.563C97.8041 141.761 97.8851 141.91 98.0471 142.009C98.2136 142.108 98.4543 142.157 98.7693 142.157Z" fill="#41197F"/>
<path d="M104.234 146.7V136.582H106.644V146.7H104.234ZM108.81 143.919C108.243 143.919 107.724 143.764 107.251 143.453C106.783 143.138 106.41 142.717 106.131 142.191C105.852 141.66 105.712 141.068 105.712 140.416C105.712 140.398 105.712 140.38 105.712 140.362C105.712 140.339 105.712 140.317 105.712 140.294L106.644 140.274C106.644 140.287 106.644 140.303 106.644 140.321C106.644 140.335 106.644 140.346 106.644 140.355C106.644 140.67 106.716 140.942 106.86 141.172C107.008 141.397 107.197 141.57 107.427 141.691C107.661 141.808 107.901 141.867 108.149 141.867C108.549 141.867 108.905 141.727 109.215 141.448C109.526 141.169 109.681 140.728 109.681 140.125C109.681 139.522 109.526 139.088 109.215 138.823C108.909 138.553 108.554 138.418 108.149 138.418C107.906 138.418 107.667 138.476 107.433 138.593C107.204 138.706 107.015 138.872 106.866 139.093C106.718 139.309 106.644 139.576 106.644 139.896L105.712 139.835C105.712 139.178 105.852 138.595 106.131 138.087C106.41 137.578 106.783 137.178 107.251 136.885C107.724 136.588 108.243 136.44 108.81 136.44C109.391 136.44 109.935 136.582 110.444 136.865C110.957 137.149 111.371 137.565 111.686 138.114C112.005 138.663 112.165 139.333 112.165 140.125C112.165 140.958 112.01 141.655 111.699 142.218C111.389 142.78 110.979 143.206 110.471 143.494C109.962 143.777 109.409 143.919 108.81 143.919Z" fill="#41197F"/>
<path d="M113.317 146.7V136.582H115.727V146.7H113.317ZM117.894 143.919C117.327 143.919 116.807 143.764 116.335 143.453C115.867 143.138 115.493 142.717 115.214 142.191C114.935 141.66 114.796 141.068 114.796 140.416C114.796 140.398 114.796 140.38 114.796 140.362C114.796 140.339 114.796 140.317 114.796 140.294L115.727 140.274C115.727 140.287 115.727 140.303 115.727 140.321C115.727 140.335 115.727 140.346 115.727 140.355C115.727 140.67 115.799 140.942 115.943 141.172C116.092 141.397 116.281 141.57 116.51 141.691C116.744 141.808 116.985 141.867 117.232 141.867C117.633 141.867 117.988 141.727 118.299 141.448C118.609 141.169 118.765 140.728 118.765 140.125C118.765 139.522 118.609 139.088 118.299 138.823C117.993 138.553 117.637 138.418 117.232 138.418C116.989 138.418 116.751 138.476 116.517 138.593C116.287 138.706 116.098 138.872 115.95 139.093C115.801 139.309 115.727 139.576 115.727 139.896L114.796 139.835C114.796 139.178 114.935 138.595 115.214 138.087C115.493 137.578 115.867 137.178 116.335 136.885C116.807 136.588 117.327 136.44 117.894 136.44C118.474 136.44 119.019 136.582 119.527 136.865C120.04 137.149 120.454 137.565 120.769 138.114C121.089 138.663 121.249 139.333 121.249 140.125C121.249 140.958 121.093 141.655 120.783 142.218C120.472 142.78 120.063 143.206 119.554 143.494C119.046 143.777 118.492 143.919 117.894 143.919Z" fill="#41197F"/>
<path fill-rule="evenodd" clip-rule="evenodd" d="M112.285 31.4606V40.4474H109.289V31.4606H112.285Z" fill="#8958A3"/>
<path fill-rule="evenodd" clip-rule="evenodd" d="M154.224 80.8884C154.224 56.899 134.776 37.4518 110.787 37.4518C86.7977 37.4518 67.3505 56.899 67.3505 80.8884H154.224Z" fill="#41197F"/>
<path fill-rule="evenodd" clip-rule="evenodd" d="M77.2568 64.2011C83.3907 51.899 96.1 43.4431 110.787 43.4431C111.614 43.4431 112.285 44.1137 112.285 44.9409C112.285 45.7681 111.614 46.4387 110.787 46.4387C97.2792 46.4387 85.5843 54.2128 79.9377 65.5378C79.5686 66.2781 78.6692 66.579 77.9289 66.2099C77.1886 65.8408 76.8877 64.9414 77.2568 64.2011Z" fill="white"/>
<path d="M154.972 80.8884H66.6017C64.5336 80.8884 62.8571 82.5648 62.8571 84.6329C62.8571 86.7009 64.5336 88.3774 66.6017 88.3774H154.972C157.041 88.3774 158.717 86.7009 158.717 84.6329C158.717 82.5648 157.041 80.8884 154.972 80.8884Z" fill="#8958A3"/>
<path fill-rule="evenodd" clip-rule="evenodd" d="M104.796 29.9627H116.778V34.4562H104.796V29.9627Z" fill="#41197F"/>
<path fill-rule="evenodd" clip-rule="evenodd" d="M131.078 0C125.218 0 120.467 3.53785 120.467 10.7185C120.467 17.8992 136.488 34.0471 139.193 34.0471C141.898 34.0471 157.919 17.8992 157.919 10.7185C157.919 3.53785 153.168 0 147.307 0C144.052 0 141.139 1.48055 139.193 3.81136C137.246 1.48055 134.334 0 131.078 0Z" fill="#E44343"/>
<path fill-rule="evenodd" clip-rule="evenodd" d="M125.625 6.69559C127.073 4.62738 129.52 3.4122 131.975 3.4122C132.915 3.4122 133.677 4.17437 133.677 5.11456C133.677 6.05474 132.915 6.81691 131.975 6.81691C130.594 6.81691 129.204 7.51969 128.415 8.64806C127.681 9.69608 127.362 11.2619 128.383 13.3037C128.803 14.1446 128.462 15.1672 127.621 15.5876C126.781 16.0081 125.758 15.6672 125.337 14.8263C123.801 11.7535 124.121 8.84415 125.625 6.69559Z" fill="white"/>
</g>
<defs>
<filter id="filter0_d_4_107" x="2.02656e-06" y="0" width="218.429" height="180.821" filterUnits="userSpaceOnUse" color-interpolation-filters="sRGB">
<feFlood flood-opacity="0" result="BackgroundImageFix"/>
<feColorMatrix in="SourceAlpha" type="matrix" values="0 0 0 0 0 0 0 0 0 0 0 0 0 0 0 0 0 0 127 0" result="hardAlpha"/>
<feOffset dx="0.785714" dy="13.3571"/>
<feGaussianBlur stdDeviation="5.10714"/>
<feComposite in2="hardAlpha" operator="out"/>
<feColorMatrix type="matrix" values="0 0 0 0 0.128867 0 0 0 0 0.0722222 0 0 0 0 0.216667 0 0 0 0.2 0"/>
<feBlend mode="normal" in2="BackgroundImageFix" result="effect1_dropShadow_4_107"/>
<feBlend mode="normal" in="SourceGraphic" in2="effect1_dropShadow_4_107" result="shape"/>
</filter>
</defs>
</svg>
